# xmcd
#
# Track frame offsets: 
#        150
#        16460
#        30233
#        46753
#        48021
#        63789
#        79891
#        95058
#        117020
#        131171
#        143400
#        159657
#        174183
#        187946
#        202312
#        218913
#
# Disc length: 3214 seconds
#
# Revision: 1
# Processed by: cddbd v1.5.2PL0 Copyright (c) Steve Scherf et al.
# Submitted via: ExactAudioCopyFreeDBPlugin 1.0
#
DISCID=ce0c8c10
DTITLE=Tom Astor - Alles klar - Kein Problem [CD 2 - Memories)
DYEAR=2008
DGENRE=Country
TTITLE0=Junger Adler
TTITLE1=Viel vergeigt und viel erreicht (Banks of the Ohio)
TTITLE2=Sweet Caroline
TTITLE3=Die Antwort weiss ganz allein der Wind (Intro)
TTITLE4=Die Antwort weiss ganz allein der Wind (Blowin' in the wind)
TTITLE5=Gospel Medley (Over in the gloryland...Down by the riverside..
TTITLE5=Glory Glory Hallelujah)
TTITLE6=Komm, komm, komm, Maedchen meiner Traeume (Song sung blue)
TTITLE7=Trucker Medley (Gute Fahrt auf allen Strassen...Buchstabiere L
TTITLE7=KW...Kameraden der Strasse...14 Tage auf dem Brenner)
TTITLE8=Help me make it through the night
TTITLE9=Hallo, guten Morgen Deutschland
TTITLE10=Juanita, Juanita
TTITLE11=Santo Domingo (Duett mit Wanda Jackson)
TTITLE12=Radwechsel
TTITLE13=Komm wir machen das Leben zur Party
TTITLE14=Freitag, 21.09.2007
TTITLE15=$Infos und Geschichten zum Album 'Alles klar'
EXTD=YEAR: 2008
EXTT0=
EXTT1=
EXTT2=
EXTT3=
EXTT4=
EXTT5=
EXTT6=
EXTT7=
EXTT8=
EXTT9=
EXTT10=
EXTT11=
EXTT12=
EXTT13=
EXTT14=
EXTT15=
PLAYORDER=
